<svg xmlns="http://www.w3.org/2000/svg" xmlns:xlink="http://www.w3.org/1999/xlink" width="308px" height="261px" version="1.1"><defs/><g transform="translate(0.5,0.5)"><path d="M 155 215 L 235 75" fill="none" stroke="#000000" stroke-miterlimit="10" stroke-dasharray="3 3" pointer-events="none"/><path d="M 155 215 L 65 85" fill="none" stroke="#000000" stroke-miterlimit="10" stroke-dasharray="3 3" pointer-events="none"/><path d="M 25 75 Q 95 95 135 70 Q 175 45 265 85" fill="none" stroke="#007fff" stroke-miterlimit="10" pointer-events="none"/><ellipse cx="25" cy="60" rx="5" ry="5" fill="#ffffff" stroke="#000000" pointer-events="none"/><ellipse cx="45" cy="60" rx="5" ry="5" fill="#ffffff" stroke="#000000" pointer-events="none"/><ellipse cx="70" cy="60" rx="5" ry="5" fill="#ffffff" stroke="#000000" pointer-events="none"/><ellipse cx="95" cy="60" rx="5" ry="5" fill="#ffffff" stroke="#000000" pointer-events="none"/><ellipse cx="120" cy="60" rx="5" ry="5" fill="#ffffff" stroke="#000000" pointer-events="none"/><ellipse cx="145" cy="60" rx="5" ry="5" fill="#ffffff" stroke="#000000" pointer-events="none"/><ellipse cx="170" cy="60" rx="5" ry="5" fill="#ffffff" stroke="#000000" pointer-events="none"/><ellipse cx="195" cy="60" rx="5" ry="5" fill="#ffffff" stroke="#000000" pointer-events="none"/><ellipse cx="220" cy="60" rx="5" ry="5" fill="#ffffff" stroke="#000000" pointer-events="none"/><ellipse cx="245" cy="60" rx="5" ry="5" fill="#ffffff" stroke="#000000" pointer-events="none"/><ellipse cx="25" cy="80" rx="5" ry="5" fill="#ffffff" stroke="#000000" pointer-events="none"/><ellipse cx="45" cy="80" rx="5" ry="5" fill="#ffffff" stroke="#000000" pointer-events="none"/><ellipse cx="70" cy="80" rx="5" ry="5" fill="#ffffff" stroke="#000000" pointer-events="none"/><ellipse cx="95" cy="80" rx="5" ry="5" fill="#ffffff" stroke="#000000" pointer-events="none"/><ellipse cx="120" cy="80" rx="5" ry="5" fill="#ffffff" stroke="#000000" pointer-events="none"/><ellipse cx="145" cy="80" rx="5" ry="5" fill="#ffffff" stroke="#000000" pointer-events="none"/><ellipse cx="170" cy="80" rx="5" ry="5" fill="#ffffff" stroke="#000000" pointer-events="none"/><ellipse cx="220" cy="80" rx="5" ry="5" fill="#ffffff" stroke="#000000" pointer-events="none"/><ellipse cx="245" cy="80" rx="5" ry="5" fill="#ffffff" stroke="#000000" pointer-events="none"/><ellipse cx="25" cy="40" rx="5" ry="5" fill="#ffffff" stroke="#000000" pointer-events="none"/><ellipse cx="45" cy="40" rx="5" ry="5" fill="#ffffff" stroke="#000000" pointer-events="none"/><ellipse cx="70" cy="40" rx="5" ry="5" fill="#ffffff" stroke="#000000" pointer-events="none"/><ellipse cx="95" cy="40" rx="5" ry="5" fill="#ffffff" stroke="#000000" pointer-events="none"/><ellipse cx="120" cy="40" rx="5" ry="5" fill="#ffffff" stroke="#000000" pointer-events="none"/><ellipse cx="145" cy="40" rx="5" ry="5" fill="#ffffff" stroke="#000000" pointer-events="none"/><ellipse cx="170" cy="40" rx="5" ry="5" fill="#ffffff" stroke="#000000" pointer-events="none"/><ellipse cx="195" cy="40" rx="5" ry="5" fill="#ffffff" stroke="#000000" pointer-events="none"/><ellipse cx="220" cy="40" rx="5" ry="5" fill="#ffffff" stroke="#000000" pointer-events="none"/><ellipse cx="245" cy="40" rx="5" ry="5" fill="#ffffff" stroke="#000000" pointer-events="none"/><path d="M 135 215 L 170 240 L 135 265 Z" fill="#ffffff" stroke="#000000" stroke-miterlimit="10" transform="rotate(90,153,240)" pointer-events="none"/><rect x="225" y="125" width="80" height="40" fill="none" stroke="none" pointer-events="none"/><g fill="#000000" font-family="Helvetica" text-anchor="middle" font-size="12px"><text x="265" y="149">W=0</text></g><rect x="0" y="125" width="80" height="40" fill="none" stroke="none" pointer-events="none"/><g fill="#000000" font-family="Helvetica" text-anchor="middle" font-size="12px"><text x="40" y="149">W=0</text></g><rect x="110" y="115" width="80" height="40" fill="none" stroke="none" pointer-events="none"/><g fill="#000000" font-family="Helvetica" text-anchor="middle" font-size="12px"><text x="150" y="139">W=1</text></g><rect x="100" y="0" width="80" height="40" fill="none" stroke="none" pointer-events="none"/><g fill="#000000" font-family="Helvetica" text-anchor="middle" font-size="12px"><text x="140" y="24">W=0</text></g><path d="M 155 215 L 194 85" fill="none" stroke="#4d4d4d" stroke-miterlimit="10" pointer-events="none"/><ellipse cx="195" cy="80" rx="5" ry="5" fill="#ffffff" stroke="#000000" pointer-events="none"/></g></svg>