<?xml version="1.0" encoding="UTF-8" standalone="no"?>
<!-- Created with Inkscape (http://www.inkscape.org/) -->

<svg
   xmlns:dc="http://purl.org/dc/elements/1.1/"
   xmlns:cc="http://creativecommons.org/ns#"
   xmlns:rdf="http://www.w3.org/1999/02/22-rdf-syntax-ns#"
   xmlns:svg="http://www.w3.org/2000/svg"
   xmlns="http://www.w3.org/2000/svg"
   xmlns:sodipodi="http://sodipodi.sourceforge.net/DTD/sodipodi-0.dtd"
   xmlns:inkscape="http://www.inkscape.org/namespaces/inkscape"
   version="1.1"
   width="308"
   height="261"
   id="svg2"
   inkscape:version="0.48.4 r9939"
   sodipodi:docname="dia_distances.svg"
   inkscape:export-filename="/home/oier/Dokumentuak/Freiburg/Robotik_Praktikum/sdf_3d_reconstruction/Vortrag/dia_plane2.png"
   inkscape:export-xdpi="200"
   inkscape:export-ydpi="200">
  <sodipodi:namedview
     pagecolor="#ffffff"
     bordercolor="#666666"
     borderopacity="1"
     objecttolerance="10"
     gridtolerance="10"
     guidetolerance="10"
     inkscape:pageopacity="0"
     inkscape:pageshadow="2"
     inkscape:window-width="1366"
     inkscape:window-height="744"
     id="namedview71"
     showgrid="false"
     inkscape:zoom="3.6168582"
     inkscape:cx="154"
     inkscape:cy="185.79661"
     inkscape:window-x="0"
     inkscape:window-y="24"
     inkscape:window-maximized="1"
     inkscape:current-layer="g6" />
  <metadata
     id="metadata104">
    <rdf:RDF>
      <cc:Work
         rdf:about="">
        <dc:format>image/svg+xml</dc:format>
        <dc:type
           rdf:resource="http://purl.org/dc/dcmitype/StillImage" />
        <dc:title></dc:title>
      </cc:Work>
    </rdf:RDF>
  </metadata>
  <defs
     id="defs4">
    <marker
       refX="0"
       refY="0"
       orient="auto"
       id="Arrow1Send"
       style="overflow:visible">
      <path
         d="M 0,0 5,-5 -12.5,0 5,5 0,0 z"
         transform="matrix(-0.2,0,0,-0.2,-1.2,0)"
         id="path3872"
         style="fill-rule:evenodd;stroke:#000000;stroke-width:1pt" />
    </marker>
    <marker
       refX="0"
       refY="0"
       orient="auto"
       id="Arrow1Sstart"
       style="overflow:visible">
      <path
         d="M 0,0 5,-5 -12.5,0 5,5 0,0 z"
         transform="matrix(0.2,0,0,0.2,1.2,0)"
         id="path3869"
         style="fill-rule:evenodd;stroke:#000000;stroke-width:1pt" />
    </marker>
    <marker
       refX="0"
       refY="0"
       orient="auto"
       id="Arrow2Lstart"
       style="overflow:visible">
      <path
         d="M 8.7185878,4.0337352 -2.2072895,0.01601326 8.7185884,-4.0017078 c -1.7454984,2.3720609 -1.7354408,5.6174519 -6e-7,8.035443 z"
         transform="matrix(1.1,0,0,1.1,1.1,0)"
         id="path3875"
         style="fill-rule:evenodd;stroke-width:0.625;stroke-linejoin:round" />
    </marker>
  </defs>
  <g
     transform="translate(0.5,0.5)"
     id="g6">
    <path
       d="M 155,215 235,75"
       id="path8"
       style="fill:none;stroke:#000000;stroke-miterlimit:10;stroke-dasharray:3, 3" />
    <path
       d="M 155,215 65,85"
       id="path10"
       style="fill:none;stroke:#000000;stroke-miterlimit:10;stroke-dasharray:3, 3" />
    <path
       d="M 25,75 Q 95,95 135,70 175,45 265,85"
       id="path12"
       style="fill:none;stroke:#007fff;stroke-miterlimit:10" />
    <ellipse
       cx="25"
       cy="60"
       rx="5"
       ry="5"
       id="ellipse14"
       style="fill:#ffffff;stroke:#000000"
       d="m 30,60 c 0,2.761424 -2.238576,5 -5,5 -2.761424,0 -5,-2.238576 -5,-5 0,-2.761424 2.238576,-5 5,-5 2.761424,0 5,2.238576 5,5 z" />
    <ellipse
       cx="45"
       cy="60"
       rx="5"
       ry="5"
       id="ellipse16"
       style="fill:#ffffff;stroke:#000000"
       d="m 50,60 c 0,2.761424 -2.238576,5 -5,5 -2.761424,0 -5,-2.238576 -5,-5 0,-2.761424 2.238576,-5 5,-5 2.761424,0 5,2.238576 5,5 z" />
    <ellipse
       cx="70"
       cy="60"
       rx="5"
       ry="5"
       id="ellipse18"
       style="fill:#ffffff;stroke:#000000"
       d="m 75,60 c 0,2.761424 -2.238576,5 -5,5 -2.761424,0 -5,-2.238576 -5,-5 0,-2.761424 2.238576,-5 5,-5 2.761424,0 5,2.238576 5,5 z" />
    <ellipse
       cx="95"
       cy="60"
       rx="5"
       ry="5"
       id="ellipse20"
       style="fill:#ffffff;stroke:#000000"
       d="m 100,60 c 0,2.761424 -2.238576,5 -5,5 -2.761424,0 -5,-2.238576 -5,-5 0,-2.761424 2.238576,-5 5,-5 2.761424,0 5,2.238576 5,5 z" />
    <ellipse
       cx="120"
       cy="60"
       rx="5"
       ry="5"
       id="ellipse22"
       style="fill:#ffffff;stroke:#000000"
       d="m 125,60 c 0,2.761424 -2.23858,5 -5,5 -2.76142,0 -5,-2.238576 -5,-5 0,-2.761424 2.23858,-5 5,-5 2.76142,0 5,2.238576 5,5 z" />
    <ellipse
       cx="145"
       cy="60"
       rx="5"
       ry="5"
       id="ellipse24"
       style="fill:#ffffff;stroke:#000000"
       d="m 150,60 c 0,2.761424 -2.23858,5 -5,5 -2.76142,0 -5,-2.238576 -5,-5 0,-2.761424 2.23858,-5 5,-5 2.76142,0 5,2.238576 5,5 z" />
    <ellipse
       cx="170"
       cy="60"
       rx="5"
       ry="5"
       id="ellipse26"
       style="fill:#ffffff;stroke:#000000"
       d="m 175,60 c 0,2.761424 -2.23858,5 -5,5 -2.76142,0 -5,-2.238576 -5,-5 0,-2.761424 2.23858,-5 5,-5 2.76142,0 5,2.238576 5,5 z" />
    <ellipse
       cx="195"
       cy="60"
       rx="5"
       ry="5"
       id="ellipse28"
       style="fill:#ffffff;stroke:#000000"
       d="m 200,60 c 0,2.761424 -2.23858,5 -5,5 -2.76142,0 -5,-2.238576 -5,-5 0,-2.761424 2.23858,-5 5,-5 2.76142,0 5,2.238576 5,5 z" />
    <ellipse
       cx="220"
       cy="60"
       rx="5"
       ry="5"
       id="ellipse30"
       style="fill:#ffffff;stroke:#000000"
       d="m 225,60 c 0,2.761424 -2.23858,5 -5,5 -2.76142,0 -5,-2.238576 -5,-5 0,-2.761424 2.23858,-5 5,-5 2.76142,0 5,2.238576 5,5 z" />
    <ellipse
       cx="245"
       cy="60"
       rx="5"
       ry="5"
       id="ellipse32"
       style="fill:#ffffff;stroke:#000000"
       d="m 250,60 c 0,2.761424 -2.23858,5 -5,5 -2.76142,0 -5,-2.238576 -5,-5 0,-2.761424 2.23858,-5 5,-5 2.76142,0 5,2.238576 5,5 z" />
    <ellipse
       cx="25"
       cy="80"
       rx="5"
       ry="5"
       id="ellipse34"
       style="fill:#ffffff;stroke:#000000"
       d="m 30,80 c 0,2.761424 -2.238576,5 -5,5 -2.761424,0 -5,-2.238576 -5,-5 0,-2.761424 2.238576,-5 5,-5 2.761424,0 5,2.238576 5,5 z" />
    <ellipse
       cx="45"
       cy="80"
       rx="5"
       ry="5"
       id="ellipse36"
       style="fill:#ffffff;stroke:#000000"
       d="m 50,80 c 0,2.761424 -2.238576,5 -5,5 -2.761424,0 -5,-2.238576 -5,-5 0,-2.761424 2.238576,-5 5,-5 2.761424,0 5,2.238576 5,5 z" />
    <ellipse
       cx="70"
       cy="80"
       rx="5"
       ry="5"
       id="ellipse38"
       style="fill:#ffffff;stroke:#000000"
       d="m 75,80 c 0,2.761424 -2.238576,5 -5,5 -2.761424,0 -5,-2.238576 -5,-5 0,-2.761424 2.238576,-5 5,-5 2.761424,0 5,2.238576 5,5 z" />
    <ellipse
       cx="95"
       cy="80"
       rx="5"
       ry="5"
       id="ellipse40"
       style="fill:#ffffff;stroke:#000000"
       d="m 100,80 c 0,2.761424 -2.238576,5 -5,5 -2.761424,0 -5,-2.238576 -5,-5 0,-2.761424 2.238576,-5 5,-5 2.761424,0 5,2.238576 5,5 z" />
    <ellipse
       cx="120"
       cy="80"
       rx="5"
       ry="5"
       id="ellipse42"
       style="fill:#ffffff;stroke:#000000"
       d="m 125,80 c 0,2.761424 -2.23858,5 -5,5 -2.76142,0 -5,-2.238576 -5,-5 0,-2.761424 2.23858,-5 5,-5 2.76142,0 5,2.238576 5,5 z" />
    <ellipse
       cx="145"
       cy="80"
       rx="5"
       ry="5"
       id="ellipse44"
       style="fill:#ffffff;stroke:#000000"
       d="m 150,80 c 0,2.761424 -2.23858,5 -5,5 -2.76142,0 -5,-2.238576 -5,-5 0,-2.761424 2.23858,-5 5,-5 2.76142,0 5,2.238576 5,5 z" />
    <ellipse
       cx="170"
       cy="80"
       rx="5"
       ry="5"
       id="ellipse46"
       style="fill:#ffffff;stroke:#000000"
       d="m 175,80 c 0,2.761424 -2.23858,5 -5,5 -2.76142,0 -5,-2.238576 -5,-5 0,-2.761424 2.23858,-5 5,-5 2.76142,0 5,2.238576 5,5 z" />
    <ellipse
       cx="220"
       cy="80"
       rx="5"
       ry="5"
       id="ellipse48"
       style="fill:#ffffff;stroke:#000000"
       d="m 225,80 c 0,2.761424 -2.23858,5 -5,5 -2.76142,0 -5,-2.238576 -5,-5 0,-2.761424 2.23858,-5 5,-5 2.76142,0 5,2.238576 5,5 z" />
    <ellipse
       cx="245"
       cy="80"
       rx="5"
       ry="5"
       id="ellipse50"
       style="fill:#ffffff;stroke:#000000"
       d="m 250,80 c 0,2.761424 -2.23858,5 -5,5 -2.76142,0 -5,-2.238576 -5,-5 0,-2.761424 2.23858,-5 5,-5 2.76142,0 5,2.238576 5,5 z" />
    <ellipse
       cx="25"
       cy="40"
       rx="5"
       ry="5"
       id="ellipse52"
       style="fill:#ffffff;stroke:#000000"
       d="m 30,40 c 0,2.761424 -2.238576,5 -5,5 -2.761424,0 -5,-2.238576 -5,-5 0,-2.761424 2.238576,-5 5,-5 2.761424,0 5,2.238576 5,5 z" />
    <ellipse
       cx="45"
       cy="40"
       rx="5"
       ry="5"
       id="ellipse54"
       style="fill:#ffffff;stroke:#000000"
       d="m 50,40 c 0,2.761424 -2.238576,5 -5,5 -2.761424,0 -5,-2.238576 -5,-5 0,-2.761424 2.238576,-5 5,-5 2.761424,0 5,2.238576 5,5 z" />
    <ellipse
       cx="70"
       cy="40"
       rx="5"
       ry="5"
       id="ellipse56"
       style="fill:#ffffff;stroke:#000000"
       d="m 75,40 c 0,2.761424 -2.238576,5 -5,5 -2.761424,0 -5,-2.238576 -5,-5 0,-2.761424 2.238576,-5 5,-5 2.761424,0 5,2.238576 5,5 z" />
    <ellipse
       cx="95"
       cy="40"
       rx="5"
       ry="5"
       id="ellipse58"
       style="fill:#ffffff;stroke:#000000"
       d="m 100,40 c 0,2.761424 -2.238576,5 -5,5 -2.761424,0 -5,-2.238576 -5,-5 0,-2.761424 2.238576,-5 5,-5 2.761424,0 5,2.238576 5,5 z" />
    <ellipse
       cx="120"
       cy="40"
       rx="5"
       ry="5"
       id="ellipse60"
       style="fill:#ffffff;stroke:#000000"
       d="m 125,40 c 0,2.761424 -2.23858,5 -5,5 -2.76142,0 -5,-2.238576 -5,-5 0,-2.761424 2.23858,-5 5,-5 2.76142,0 5,2.238576 5,5 z" />
    <ellipse
       cx="145"
       cy="40"
       rx="5"
       ry="5"
       id="ellipse62"
       style="fill:#ffffff;stroke:#000000"
       d="m 150,40 c 0,2.761424 -2.23858,5 -5,5 -2.76142,0 -5,-2.238576 -5,-5 0,-2.761424 2.23858,-5 5,-5 2.76142,0 5,2.238576 5,5 z" />
    <ellipse
       cx="170"
       cy="40"
       rx="5"
       ry="5"
       id="ellipse64"
       style="fill:#ffffff;stroke:#000000"
       d="m 175,40 c 0,2.761424 -2.23858,5 -5,5 -2.76142,0 -5,-2.238576 -5,-5 0,-2.761424 2.23858,-5 5,-5 2.76142,0 5,2.238576 5,5 z" />
    <ellipse
       cx="195"
       cy="40"
       rx="5"
       ry="5"
       id="ellipse66"
       style="fill:#ffffff;stroke:#000000"
       d="m 200,40 c 0,2.761424 -2.23858,5 -5,5 -2.76142,0 -5,-2.238576 -5,-5 0,-2.761424 2.23858,-5 5,-5 2.76142,0 5,2.238576 5,5 z" />
    <ellipse
       cx="220"
       cy="40"
       rx="5"
       ry="5"
       id="ellipse68"
       style="fill:#ffffff;stroke:#000000"
       d="m 225,40 c 0,2.761424 -2.23858,5 -5,5 -2.76142,0 -5,-2.238576 -5,-5 0,-2.761424 2.23858,-5 5,-5 2.76142,0 5,2.238576 5,5 z" />
    <ellipse
       cx="245"
       cy="40"
       rx="5"
       ry="5"
       id="ellipse70"
       style="fill:#ffffff;stroke:#000000"
       d="m 250,40 c 0,2.761424 -2.23858,5 -5,5 -2.76142,0 -5,-2.238576 -5,-5 0,-2.761424 2.23858,-5 5,-5 2.76142,0 5,2.238576 5,5 z" />
    <path
       d="m 135,215 35,25 -35,25 z"
       transform="matrix(0,1,-1,0,393,87)"
       id="path72"
       style="fill:#ffffff;stroke:#000000;stroke-miterlimit:10" />
    <rect
       width="80"
       height="40"
       x="225"
       y="125"
       id="rect74"
       style="fill:none;stroke:none" />
    <g
       id="g76"
       style="font-size:12px;text-anchor:middle;fill:#000000;font-family:Helvetica">
      <text
         x="265"
         y="149"
         id="text78">W=0</text>
    </g>
    <rect
       width="80"
       height="40"
       x="0"
       y="125"
       id="rect80"
       style="fill:none;stroke:none" />
    <g
       id="g82"
       style="font-size:12px;text-anchor:middle;fill:#000000;font-family:Helvetica">
      <text
         x="40"
         y="149"
         id="text84">W=0</text>
    </g>
    <rect
       width="80"
       height="40"
       x="110"
       y="115"
       id="rect86"
       style="fill:none;stroke:none" />
    <g
       id="g88"
       style="font-size:12px;text-anchor:middle;fill:#000000;font-family:Helvetica">
      <text
         x="150"
         y="139"
         id="text90">W=1</text>
    </g>
    <rect
       width="80"
       height="40"
       x="100"
       y="0"
       id="rect92"
       style="fill:none;stroke:none" />
    <g
       id="g94"
       style="font-size:12px;text-anchor:middle;fill:#000000;font-family:Helvetica">
      <text
         x="140"
         y="24"
         id="text96">W=0</text>
    </g>
    <ellipse
       cx="195"
       cy="80"
       rx="5"
       ry="5"
       id="ellipse100"
       style="fill:#ffffff;stroke:#000000"
       d="m 200,80 c 0,2.761424 -2.23858,5 -5,5 -2.76142,0 -5,-2.238576 -5,-5 0,-2.761424 2.23858,-5 5,-5 2.76142,0 5,2.238576 5,5 z" />
    <path
       d="M 155.38347,214.55085 146.8125,85.986229"
       transform="translate(-0.5,-0.5)"
       id="path4882"
       style="fill:none;stroke:#808080;stroke-width:1px;stroke-linecap:butt;stroke-linejoin:miter;stroke-opacity:1" />
    <path
       d="m 144.9655,65.887966 0.78202,9.481897"
       transform="translate(-0.5,-0.5)"
       id="path4886"
       style="fill:none;stroke:#808080;stroke-width:1;stroke-linecap:butt;stroke-linejoin:miter;stroke-miterlimit:4;stroke-opacity:1;stroke-dasharray:1, 1;stroke-dashoffset:0" />
    <path
       d="M 117.86888,80.35216 173.79917,48.664244"
       id="path4888"
       style="fill:none;stroke:#c87137;stroke-width:1.17907906px;stroke-linecap:butt;stroke-linejoin:miter;stroke-opacity:1" />
    <path
       d="m 145.23063,64.686822 6.41993,9.963543"
       id="path4892"
       style="fill:none;stroke:#008000;stroke-width:1.16173529999999992px;stroke-linecap:butt;stroke-linejoin:miter;stroke-opacity:1;marker-end:url(#Arrow1Send)" />
    <text
       x="152.88338"
       y="69.407021"
       transform="translate(-0.5,-0.5)"
       id="text5080"
       xml:space="preserve"
       style="font-size:12px;font-style:normal;font-weight:normal;line-height:125%;letter-spacing:0px;word-spacing:0px;fill:#000000;fill-opacity:1;stroke:none;font-family:Sans"><tspan
         x="152.88338"
         y="69.407021"
         id="tspan5082" /></text>
    <g
       transform="translate(46.725227,-2.7370426)"
       id="g5292"
       style="fill:#00ff00;fill-opacity:1;stroke:#ff2a2a;stroke-opacity:1">
      <g
         transform="matrix(0.37285714,0,0,-0.37285714,-65.25,231)"
         id="g5294"
         xml:space="preserve"
         style="font-style:normal;font-variant:normal;font-weight:normal;font-stretch:normal;letter-spacing:normal;word-spacing:normal;text-anchor:start;fill:#00ff00;fill-opacity:1;stroke:#ff2a2a;stroke-linecap:butt;stroke-linejoin:miter;stroke-miterlimit:10.43299961;stroke-opacity:1;stroke-dasharray:none;stroke-dashoffset:0"><polygon
           points="464.71,433.11 470.49,438.18 476.23,433.11 477.12,434 470.49,440.78 463.82,434 "
           id="polygon5296"
           style="fill:#008000;fill-opacity:1;stroke:#ff2a2a;stroke-width:0;stroke-opacity:1" /><path
           d="m 459.91,409.14 -0.02,-0.07 -0.01,-0.08 -0.02,-0.07 -0.02,-0.08 -0.03,-0.16 -0.04,-0.16 -0.04,-0.16 -0.04,-0.16 -0.03,-0.16 -0.04,-0.16 -0.02,-0.08 -0.01,-0.07 -0.02,-0.07 -0.01,-0.07 -0.02,-0.07 -0.01,-0.07 -0.02,-0.06 -0.01,-0.06 -0.01,-0.06 -0.01,-0.05 -0.01,-0.05 0,-0.04 -0.01,-0.04 0,-0.04 -0.01,-0.03 0,-0.02 c 0,-0.89 0.71,-1.35 1.44,-1.35 0.61,0 1.5,0.39 1.84,1.39 0.07,0.11 0.66,2.44 0.96,3.69 l 1.09,4.48 c 0.3,1.1 0.6,2.19 0.84,3.35 0.21,0.84 0.61,2.28 0.66,2.48 0.75,1.55 3.39,6.08 8.11,6.08 2.25,0 2.7,-1.84 2.7,-3.48 0,-3.1 -2.45,-9.47 -3.25,-11.61 -0.43,-1.14 -0.48,-1.75 -0.48,-2.3 0,-2.33 1.73,-4.08 4.08,-4.08 4.68,0 6.53,7.27 6.53,7.67 0,0.5 -0.45,0.5 -0.61,0.5 -0.48,0 -0.48,-0.15 -0.74,-0.9 -1,-3.38 -2.64,-6.17 -5.09,-6.17 -0.84,0 -1.19,0.5 -1.19,1.64 0,1.25 0.46,2.45 0.89,3.54 0.96,2.64 3.05,8.11 3.05,10.96 0,3.34 -2.14,5.32 -5.73,5.32 -4.49,0 -6.93,-3.18 -7.77,-4.32 -0.25,2.79 -2.3,4.32 -4.59,4.32 -2.28,0 -3.24,-1.93 -3.74,-2.82 -0.79,-1.71 -1.5,-4.64 -1.5,-4.85 0,-0.5 0.5,-0.5 0.61,-0.5 0.5,0 0.55,0.07 0.85,1.16 0.84,3.53 1.84,5.92 3.64,5.92 0.98,0 1.54,-0.64 1.54,-2.28 0,-1.05 -0.15,-1.61 -0.79,-4.19 z"
           id="path5298"
           style="fill:#008000;fill-opacity:1;stroke:#008000;stroke-width:0;stroke-opacity:1" /></g>    </g>
  </g>
  <path
     d="m 136.40734,71.411836 9.25284,9.474239"
     id="path3083"
     style="fill:none;stroke:#ff2a2a;stroke-width:1.13569939px;stroke-linecap:butt;stroke-linejoin:miter;stroke-opacity:1;marker-start:url(#Arrow1Sstart);marker-mid:none;marker-end:url(#Arrow1Send)" />
  <text
     x="129.92862"
     y="82.206268"
     id="text4857"
     xml:space="preserve"
     style="font-size:12px;font-style:normal;font-weight:normal;line-height:125%;letter-spacing:0px;word-spacing:0px;fill:#ff2a2a;fill-opacity:1;stroke:none;font-family:Sans"><tspan
       x="129.92862"
       y="82.206268"
       id="tspan4859">d</tspan></text>
</svg>
